<svg xmlns="http://www.w3.org/2000/svg" width="270" height="46" viewBox="0 0 270 46" fill="none"><path d="M51.4409 0.370361H55.8385V15.8585C55.8385 17.0322 55.6455 18.0338 55.2595 18.8684C54.8735 19.7005 54.357 20.3813 53.7075 20.9055C53.0607 21.4298 52.3147 21.8106 51.4748 22.0506C50.6324 22.2905 49.7507 22.4079 48.8248 22.4079V18.7276C49.2108 18.7276 49.5656 18.6624 49.889 18.532C50.2124 18.4016 50.4915 18.172 50.7236 17.8486C50.9558 17.5252 51.1331 17.0922 51.2557 16.5523C51.3783 16.0123 51.4409 15.3316 51.4409 14.5152V0.370361Z" fill="#FDFFFA"/><path d="M74.8974 9.09776C74.8974 10.4567 74.7305 11.6982 74.3992 12.825C74.0679 13.9518 73.5541 14.9117 72.8603 15.7072C72.1665 16.5027 71.2823 17.1183 70.2103 17.5591C69.1383 17.9999 67.8602 18.219 66.3787 18.219C64.8972 18.219 63.52 18.0103 62.4323 17.5956C61.3447 17.1783 60.4657 16.581 59.7927 15.8011C59.1198 15.0212 58.6294 14.0692 58.3216 12.9424C58.0138 11.8156 57.86 10.5428 57.86 9.12384C57.86 7.70493 58.0138 6.45293 58.3216 5.32615C58.6294 4.19936 59.1276 3.24212 59.8136 2.45441C60.4996 1.66671 61.3838 1.06158 62.4636 0.636426C63.5434 0.211273 64.8476 0 66.3761 0C67.9045 0 69.1591 0.216492 70.2311 0.646862C71.3031 1.07984 72.1874 1.69279 72.8812 2.48832C73.575 3.28385 74.0836 4.24109 74.4096 5.36006C74.7331 6.47902 74.8948 7.72579 74.8948 9.09776H74.8974ZM66.3787 14.4213C67.2133 14.4213 67.8863 14.2622 68.4053 13.9466C68.9218 13.631 69.3182 13.2163 69.5973 12.7076C69.8764 12.199 70.059 11.6278 70.1529 10.994C70.2468 10.3602 70.2911 9.72896 70.2911 9.09515C70.2911 8.46133 70.2442 7.83012 70.1529 7.1963C70.059 6.56249 69.8738 5.99649 69.5973 5.49569C69.3208 4.9949 68.9218 4.58539 68.4053 4.26718C67.8889 3.95157 67.2133 3.79247 66.3787 3.79247C65.544 3.79247 64.8711 3.95157 64.352 4.26718C63.8356 4.58539 63.4391 4.99229 63.16 5.49569C62.8809 5.99909 62.6957 6.56509 62.6045 7.1963C62.5106 7.83012 62.4662 8.46133 62.4662 9.09515C62.4662 9.72896 62.5132 10.3602 62.6045 10.994C62.6957 11.6278 62.8835 12.1964 63.16 12.7076C63.4365 13.2189 63.8356 13.631 64.352 13.9466C64.8685 14.2648 65.544 14.4213 66.3787 14.4213Z" fill="#FDFFFA"/><path d="M76.8954 17.7313V0.367798H82.8449C83.8648 0.367798 84.8507 0.472125 85.8079 0.680789C86.7652 0.889453 87.6103 1.23375 88.3432 1.71107C89.0761 2.191 89.663 2.81438 90.1012 3.58644C90.542 4.3585 90.7611 5.31575 90.7611 6.45818C90.7611 7.21459 90.675 7.87449 90.5055 8.43788C90.3359 9.00128 90.1012 9.48642 89.7986 9.89592C89.4961 10.3054 89.1309 10.6445 88.6979 10.9132C88.2649 11.1818 87.7955 11.4035 87.2868 11.5731L90.6203 17.7313H86.267L83.5126 12.1052H81.2904V17.7313H76.8928H76.8954ZM81.293 10.1854H82.7979C83.244 10.1854 83.6822 10.1437 84.1047 10.0576C84.5299 9.97417 84.9107 9.81506 85.2498 9.58292C85.5888 9.35078 85.8601 9.03257 86.0609 8.62307C86.2618 8.21357 86.3609 7.68408 86.3609 7.03723C86.3609 6.43471 86.2566 5.94434 86.0479 5.56614C85.8392 5.18794 85.5653 4.89581 85.2263 4.68714C84.8872 4.47848 84.5064 4.34024 84.0812 4.26981C83.6561 4.202 83.2205 4.16548 82.7745 4.16548H81.293V10.1854Z" fill="#FDFFFA"/><path d="M104.225 0.370361H108.623V17.7338H104.225L96.9793 5.25571V17.7338H92.5817V0.370361H96.9793L104.225 12.8485V0.370361Z" fill="#FDFFFA"/><path d="M110.068 17.7313L116.226 0.367798H120.624L126.782 17.7313H122.152L121.111 14.2127H115.764L114.7 17.7313H110.07H110.068ZM120.485 12.1521L118.425 5.3001L116.364 12.1521H120.485Z" fill="#FDFFFA"/><path d="M143.011 9.02735C143.011 10.3863 142.838 11.6044 142.489 12.6842C142.142 13.764 141.618 14.6795 140.913 15.4281C140.212 16.1767 139.328 16.7479 138.263 17.1418C137.199 17.5356 135.955 17.7313 134.536 17.7313H128.24V0.367798H134.536C137.421 0.367798 139.555 1.11899 140.937 2.62398C142.317 4.12897 143.008 6.26256 143.008 9.02475L143.011 9.02735ZM134.515 13.9127C135.256 13.9127 135.877 13.7927 136.378 13.5528C136.878 13.3128 137.278 12.9789 137.57 12.546C137.862 12.113 138.07 11.6017 138.193 11.0071C138.316 10.4124 138.378 9.76029 138.378 9.05083C138.378 8.34137 138.316 7.71278 138.193 7.11808C138.07 6.52339 137.862 6.01216 137.57 5.57918C137.275 5.1462 136.878 4.80712 136.378 4.56194C135.877 4.31415 135.253 4.19157 134.515 4.19157H132.64V13.9153H134.515V13.9127Z" fill="#FDFFFA"/><path d="M143.138 17.7313L149.297 0.367798H153.694L159.852 17.7313H155.223L154.182 14.2127H148.835L147.771 17.7313H143.141H143.138ZM153.556 12.1521L151.495 5.3001L149.435 12.1521H153.556Z" fill="#FDFFFA"/><path d="M182.375 9.02735C182.375 10.3863 182.203 11.6044 181.853 12.6842C181.506 13.764 180.982 14.6795 180.278 15.4281C179.576 16.1767 178.692 16.7479 177.628 17.1418C176.564 17.5356 175.32 17.7313 173.901 17.7313H167.604V0.367798H173.901C176.785 0.367798 178.919 1.11899 180.301 2.62398C181.681 4.12897 182.372 6.26256 182.372 9.02475L182.375 9.02735ZM173.88 13.9127C174.621 13.9127 175.241 13.7927 175.742 13.5528C176.243 13.3128 176.642 12.9789 176.934 12.546C177.226 12.113 177.435 11.6017 177.558 11.0071C177.68 10.4124 177.743 9.76029 177.743 9.05083C177.743 8.34137 177.68 7.71278 177.558 7.11808C177.435 6.52339 177.226 6.01216 176.934 5.57918C176.639 5.1462 176.243 4.80712 175.742 4.56194C175.241 4.31415 174.618 4.19157 173.88 4.19157H172.004V13.9153H173.88V13.9127Z" fill="#FDFFFA"/><path d="M200.86 9.09776C200.86 10.4567 200.693 11.6982 200.362 12.825C200.031 13.9518 199.517 14.9117 198.823 15.7072C198.129 16.5027 197.245 17.1183 196.173 17.5591C195.101 17.9999 193.823 18.219 192.341 18.219C190.86 18.219 189.483 18.0103 188.395 17.5956C187.307 17.1783 186.428 16.581 185.755 15.8011C185.082 15.0212 184.592 14.0692 184.284 12.9424C183.977 11.8156 183.823 10.5428 183.823 9.12384C183.823 7.70493 183.977 6.45293 184.284 5.32615C184.592 4.19936 185.09 3.24212 185.776 2.45441C186.462 1.66671 187.346 1.06158 188.426 0.636426C189.506 0.211273 190.81 0 192.339 0C193.867 0 195.122 0.216492 196.194 0.646862C197.266 1.07984 198.15 1.69279 198.844 2.48832C199.538 3.28385 200.046 4.24109 200.372 5.36006C200.696 6.47902 200.857 7.72579 200.857 9.09776H200.86ZM192.341 14.4213C193.176 14.4213 193.849 14.2622 194.368 13.9466C194.884 13.631 195.281 13.2163 195.56 12.7076C195.839 12.199 196.022 11.6278 196.116 10.994C196.21 10.3602 196.254 9.72896 196.254 9.09515C196.254 8.46133 196.207 7.83012 196.116 7.1963C196.022 6.56249 195.837 5.99649 195.56 5.49569C195.284 4.9949 194.884 4.58539 194.368 4.26718C193.852 3.95157 193.176 3.79247 192.341 3.79247C191.507 3.79247 190.834 3.95157 190.315 4.26718C189.798 4.58539 189.402 4.99229 189.123 5.49569C188.844 5.99909 188.658 6.56509 188.567 7.1963C188.473 7.83012 188.429 8.46133 188.429 9.09515C188.429 9.72896 188.476 10.3602 188.567 10.994C188.658 11.6278 188.846 12.1964 189.123 12.7076C189.399 13.2189 189.798 13.631 190.315 13.9466C190.831 14.2648 191.507 14.4213 192.341 14.4213Z" fill="#FDFFFA"/><path d="M221.487 14.004V17.7313H208.291V14.8595L217.089 4.09505H208.755L208.732 0.367798H221.234V3.3543L212.506 14.004H221.489H221.487Z" fill="#FDFFFA"/><path d="M223.156 0.370361H235.287V4.09763H227.556V7.96313H233.529V9.93239H227.556V14.0066H235.287V17.7338H223.156V0.370361Z" fill="#FDFFFA"/><path d="M237.512 17.7313V0.367798H243.461C244.481 0.367798 245.467 0.472125 246.425 0.680789C247.382 0.889453 248.227 1.23375 248.96 1.71107C249.693 2.191 250.28 2.81438 250.718 3.58644C251.159 4.3585 251.378 5.31575 251.378 6.45818C251.378 7.21459 251.292 7.87449 251.122 8.43788C250.953 9.00128 250.718 9.48642 250.415 9.89592C250.113 10.3054 249.747 10.6445 249.315 10.9132C248.882 11.1818 248.412 11.4035 247.903 11.5731L251.237 17.7313H246.884L244.129 12.1052H241.907V17.7313H237.509H237.512ZM241.91 10.1854H243.415C243.861 10.1854 244.299 10.1437 244.721 10.0576C245.146 9.97417 245.527 9.81506 245.866 9.58292C246.205 9.35078 246.477 9.03257 246.678 8.62307C246.878 8.21357 246.977 7.68408 246.977 7.03723C246.977 6.43471 246.873 5.94434 246.664 5.56614C246.456 5.18794 246.182 4.89581 245.843 4.68714C245.504 4.47848 245.123 4.34024 244.698 4.26981C244.273 4.202 243.837 4.16548 243.391 4.16548H241.91V10.1854Z" fill="#FDFFFA"/><path d="M269.714 9.09776C269.714 10.4567 269.547 11.6982 269.216 12.825C268.885 13.9518 268.371 14.9117 267.677 15.7072C266.983 16.5027 266.099 17.1183 265.027 17.5591C263.955 17.9999 262.677 18.219 261.195 18.219C259.714 18.219 258.337 18.0103 257.249 17.5956C256.161 17.1783 255.282 16.581 254.609 15.8011C253.936 15.0212 253.446 14.0692 253.138 12.9424C252.831 11.8156 252.677 10.5428 252.677 9.12384C252.677 7.70493 252.831 6.45293 253.138 5.32615C253.446 4.19936 253.944 3.24212 254.63 2.45441C255.316 1.66671 256.2 1.06158 257.28 0.636426C258.36 0.211273 259.664 0 261.193 0C262.721 0 263.976 0.216492 265.048 0.646862C266.12 1.07984 267.004 1.69279 267.698 2.48832C268.392 3.28385 268.9 4.24109 269.226 5.36006C269.55 6.47902 269.711 7.72579 269.711 9.09776H269.714ZM261.195 14.4213C262.03 14.4213 262.703 14.2622 263.222 13.9466C263.738 13.631 264.135 13.2163 264.414 12.7076C264.693 12.199 264.876 11.6278 264.97 10.994C265.063 10.3602 265.108 9.72896 265.108 9.09515C265.108 8.46133 265.061 7.83012 264.97 7.1963C264.876 6.56249 264.69 5.99649 264.414 5.49569C264.135 4.9949 263.738 4.58539 263.222 4.26718C262.706 3.95157 262.03 3.79247 261.195 3.79247C260.361 3.79247 259.688 3.95157 259.169 4.26718C258.652 4.58539 258.256 4.99229 257.977 5.49569C257.698 5.99909 257.512 6.56509 257.421 7.1963C257.327 7.83012 257.283 8.46133 257.283 9.09515C257.283 9.72896 257.33 10.3602 257.421 10.994C257.512 11.6278 257.7 12.1964 257.977 12.7076C258.253 13.2189 258.652 13.631 259.169 13.9466C259.685 14.2648 260.361 14.4213 261.195 14.4213Z" fill="#FDFFFA"/><path d="M48.0736 45.5096L54.2318 28.1462H58.6294L64.7876 45.5096H60.1579L59.1172 41.991H53.7701L52.706 45.5096H48.0762H48.0736ZM55.3195 27.0637L52.4608 23.6938H56.4306L57.8313 27.0637H55.3195ZM58.4912 39.9305L56.4306 33.0785L54.3701 39.9305H58.4912Z" fill="#FDFFFA"/><path d="M72.5421 45.5096V28.1462H78.4916C79.5115 28.1462 80.4974 28.2531 81.4547 28.4696C82.4119 28.6861 83.257 29.0408 83.9899 29.5338C84.7229 30.0268 85.3097 30.6762 85.7479 31.477C86.1887 32.2803 86.4078 33.2741 86.4078 34.4635C86.4078 35.7285 86.1914 36.7484 85.761 37.5178C85.328 38.2899 84.7437 38.8846 84.0004 39.3019C83.2596 39.7192 82.4041 39.9957 81.4312 40.1339C80.4583 40.2722 79.4411 40.3426 78.3769 40.3426H76.6632V38.4203H78.4473C78.8933 38.4203 79.3315 38.3733 79.7541 38.282C80.1792 38.1881 80.56 38.0186 80.8991 37.7734C81.2382 37.5256 81.5094 37.1839 81.7103 36.7431C81.9111 36.3023 82.0102 35.7363 82.0102 35.0425C82.0102 34.3931 81.9059 33.8688 81.6972 33.4671C81.4886 33.0654 81.2147 32.7498 80.8756 32.5177C80.5365 32.2855 80.1557 32.1317 79.7306 32.0534C79.3054 31.9778 78.8699 31.9386 78.4238 31.9386H76.9423V45.5044H72.5447L72.5421 45.5096Z" fill="#FDFFFA"/><path d="M87.9206 45.5096V28.1462H93.8702C94.89 28.1462 95.876 28.2505 96.8332 28.4592C97.7904 28.6678 98.6355 29.0121 99.3685 29.4895C100.101 29.9694 100.688 30.5928 101.126 31.3648C101.567 32.1369 101.786 33.0941 101.786 34.2366C101.786 34.993 101.7 35.6529 101.531 36.2163C101.361 36.7797 101.126 37.2648 100.824 37.6743C100.521 38.0838 100.156 38.4229 99.7232 38.6915C99.2902 38.9602 98.8207 39.1819 98.3121 39.3514L101.646 45.5096H97.2923L94.5379 39.8835H92.3156V45.5096H87.918H87.9206ZM92.3182 37.9638H93.8232C94.2692 37.9638 94.7074 37.9221 95.13 37.836C95.5551 37.7526 95.936 37.5934 96.275 37.3613C96.6141 37.1292 96.8854 36.811 97.0862 36.4015C97.2871 35.9919 97.3862 35.4625 97.3862 34.8156C97.3862 34.2131 97.2818 33.7227 97.0732 33.3445C96.8645 32.9663 96.5906 32.6742 96.2516 32.4655C95.9125 32.2569 95.5317 32.1186 95.1065 32.0482C94.6814 31.9804 94.2458 31.9439 93.7998 31.9439H92.3182V37.9638Z" fill="#FDFFFA"/><path d="M103.594 28.1488H107.992V45.5123H103.594V28.1488Z" fill="#FDFFFA"/><path d="M125.219 28.1488H129.593V45.5123H125.219V35.3973L121.492 45.5123H118.62L114.917 35.3973V45.5123H110.519V28.1488H114.917L120.078 42.5936L125.217 28.1488H125.219Z" fill="#FDFFFA"/><path d="M132.144 28.1488H144.276V31.8761H136.545V35.7416H142.518V37.7108H136.545V41.785H144.276V45.5123H132.144V28.1488Z" fill="#FDFFFA"/><path d="M146.524 28.1488H150.922V45.5123H146.524V28.1488Z" fill="#FDFFFA"/><path d="M153.449 45.5096V28.1462H159.399C160.418 28.1462 161.404 28.2505 162.362 28.4592C163.319 28.6678 164.164 29.0121 164.897 29.4895C165.63 29.9694 166.217 30.5928 166.655 31.3648C167.096 32.1369 167.315 33.0941 167.315 34.2366C167.315 34.993 167.229 35.6529 167.059 36.2163C166.89 36.7797 166.655 37.2648 166.352 37.6743C166.05 38.0838 165.685 38.4229 165.252 38.6915C164.819 38.9602 164.349 39.1819 163.84 39.3514L167.174 45.5096H162.821L160.066 39.8835H157.844V45.5096H153.446H153.449ZM157.847 37.9638H159.352C159.798 37.9638 160.236 37.9221 160.658 37.836C161.083 37.7526 161.464 37.5934 161.803 37.3613C162.142 37.1292 162.414 36.811 162.615 36.4015C162.815 35.9919 162.915 35.4625 162.915 34.8156C162.915 34.2131 162.81 33.7227 162.602 33.3445C162.393 32.9663 162.119 32.6742 161.78 32.4655C161.441 32.2569 161.06 32.1186 160.635 32.0482C160.21 31.9804 159.774 31.9439 159.328 31.9439H157.847V37.9638Z" fill="#FDFFFA"/><path d="M168.361 45.5096L174.519 28.1462H178.916L185.075 45.5096H180.445L179.404 41.991H174.057L172.993 45.5096H168.363H168.361ZM178.778 39.9305L176.718 33.0785L174.657 39.9305H178.778Z" fill="#FDFFFA"/><path d="M203.849 28.1488H208.479L202.344 45.5123H197.947L191.788 28.1488H196.418L199.519 37.9638C199.705 38.5507 199.827 39.2106 199.89 39.9435C199.952 40.6765 199.984 41.3599 199.984 41.9911H200.307C200.307 41.3572 200.338 40.6765 200.398 39.9435C200.461 39.2106 200.584 38.5507 200.769 37.9638L203.847 28.1488H203.849Z" fill="#FDFFFA"/><path d="M206.937 45.5096L213.096 28.1462H217.493L223.651 45.5096H219.022L217.981 41.991H212.634L211.57 45.5096H206.94H206.937ZM217.355 39.9305L215.294 33.0785L213.234 39.9305H217.355Z" fill="#FDFFFA"/><path d="M232.139 36.3206H240.219V45.5122H236.283V40.8825H236.004C235.866 41.871 235.644 42.6953 235.344 43.3604C235.044 44.0229 234.69 44.5498 234.28 44.9358C233.871 45.3218 233.412 45.5957 232.903 45.7574C232.394 45.9191 231.862 46 231.307 46C229.995 46 228.868 45.7731 227.926 45.3166C226.985 44.8602 226.213 44.2289 225.613 43.4178C225.013 42.6066 224.567 41.6467 224.283 40.5356C223.998 39.4245 223.855 38.2116 223.855 36.9022C223.855 35.4833 224.014 34.2105 224.33 33.0811C224.645 31.9543 225.143 30.997 225.821 30.2093C226.5 29.4216 227.381 28.8217 228.461 28.4044C229.541 27.9871 230.853 27.781 232.397 27.781C233.693 27.781 234.898 27.9662 236.01 28.3366C237.121 28.7069 238.208 29.2547 239.273 29.9798L237.259 32.9898C236.596 32.5725 235.89 32.2334 235.141 31.9725C234.392 31.7117 233.61 31.5787 232.791 31.5787C231.972 31.5787 231.262 31.7248 230.707 32.0195C230.151 32.3142 229.708 32.7055 229.377 33.2011C229.045 33.694 228.811 34.2626 228.67 34.9017C228.532 35.5433 228.461 36.2032 228.461 36.8814C228.461 37.5595 228.508 38.1699 228.599 38.8037C228.691 39.4375 228.878 40.0061 229.155 40.5173C229.431 41.0286 229.83 41.4355 230.347 41.7432C230.863 42.051 231.539 42.2075 232.374 42.2075C232.976 42.2075 233.511 42.0928 233.983 41.8606C234.455 41.6285 234.846 41.3233 235.164 40.9451C235.48 40.5669 235.723 40.1287 235.895 39.6253C236.064 39.1245 236.15 38.595 236.15 38.0395L236.383 38.4098H232.147V36.3258L232.139 36.3206Z" fill="#FDFFFA"/><path d="M241.51 45.5096L247.669 28.1462H252.066L258.224 45.5096H253.595L252.554 41.991H247.207L246.143 45.5096H241.513H241.51ZM251.928 39.9305L249.867 33.0785L247.807 39.9305H251.928Z" fill="#FDFFFA"/><path d="M46.313 0.367798C42.2414 8.0962 33.7697 34.3331 30.3267 45.5097H24.5519L33.4097 21.6802H18.5815V22.421C18.5815 22.421 22.7496 24.1842 20.5821 27.082C20.3395 27.3428 20.0709 27.5854 19.7683 27.7863C18.9415 28.3653 17.9399 28.6966 16.8835 28.6966H0C4.60887 17.3609 6.6929 10.6967 6.6929 10.6967C7.43105 8.70915 9.32207 7.39195 11.4531 7.39195H18.172C20.5534 7.39195 22.6766 5.90783 23.506 3.68034C23.879 2.67875 24.5415 1.85974 25.3762 1.27809C26.203 0.69905 27.2124 0.367798 28.2662 0.367798H46.3078H46.313Z" fill="#996DFF"/></svg>